<svg id="app-store" xmlns="http://www.w3.org/2000/svg" xmlns:xlink="http://www.w3.org/1999/xlink" width="144.974" height="42.967" viewBox="0 0 144.974 42.967">
  <defs>
    <linearGradient id="linear-gradient" x1="-1.559" y1="3.462" x2="-1.559" y2="3.387" gradientUnits="objectBoundingBox">
      <stop offset="0" stop-color="#1a1a1a" stop-opacity="0.102"/>
      <stop offset="0.123" stop-color="#212121" stop-opacity="0.153"/>
      <stop offset="0.308" stop-color="#353535" stop-opacity="0.227"/>
      <stop offset="0.532" stop-color="#575757" stop-opacity="0.318"/>
      <stop offset="0.783" stop-color="#858585" stop-opacity="0.42"/>
      <stop offset="1" stop-color="#b3b3b3" stop-opacity="0.51"/>
    </linearGradient>
  </defs>
  <path id="Path_95" data-name="Path 95" d="M153.737,47.618a4.115,4.115,0,0,1-4.119,4.115H14.806a4.12,4.12,0,0,1-4.125-4.115V14.8a4.126,4.126,0,0,1,4.125-4.121H149.617a4.12,4.12,0,0,1,4.12,4.121V47.618Z" transform="translate(-9.725 -9.724)" fill="#fff"/>
  <path id="Path_96" data-name="Path 96" d="M139.893,42.967H5.081A5.082,5.082,0,0,1,0,37.894V5.078A5.086,5.086,0,0,1,5.081,0H139.892a5.088,5.088,0,0,1,5.081,5.078V37.894a5.081,5.081,0,0,1-5.08,5.073Z" fill="#a6a6a6"/>
  <path id="Path_97" data-name="Path 97" d="M153.737,47.618a4.115,4.115,0,0,1-4.119,4.115H14.806a4.12,4.12,0,0,1-4.125-4.115V14.8a4.126,4.126,0,0,1,4.125-4.121H149.617a4.12,4.12,0,0,1,4.12,4.121V47.618Z" transform="translate(-9.725 -9.724)"/>
  <path id="Path_98" data-name="Path 98" d="M172.131,89.181a6.228,6.228,0,0,1,2.967-5.226,6.379,6.379,0,0,0-5.024-2.716c-2.113-.222-4.164,1.265-5.24,1.265-1.1,0-2.756-1.243-4.543-1.207a6.689,6.689,0,0,0-5.63,3.434c-2.435,4.215-.619,10.409,1.714,13.816,1.167,1.67,2.53,3.532,4.315,3.466,1.746-.071,2.4-1.112,4.505-1.112,2.088,0,2.7,1.112,4.52,1.07,1.874-.029,3.054-1.676,4.18-3.36a13.776,13.776,0,0,0,1.911-3.893A6.026,6.026,0,0,1,172.131,89.181ZM168.693,79a6.131,6.131,0,0,0,1.4-4.393,6.245,6.245,0,0,0-4.038,2.089,5.834,5.834,0,0,0-1.44,4.231A5.158,5.158,0,0,0,168.693,79Z" transform="translate(-139.76 -67.924)" fill="#fff"/>
  <path id="Path_99" data-name="Path 99" d="M828.126,0h-72.21L784.2,42.967h43.926a5.085,5.085,0,0,0,5.081-5.076V5.078A5.086,5.086,0,0,0,828.126,0Z" transform="translate(-688.232)" fill="url(#linear-gradient)"/>
  <g id="Group_76" data-name="Group 76" transform="translate(45.59 19.34)">
    <path id="Path_100" data-name="Path 100" d="M521.232,230.5h-2.44l-1.337-4.2h-4.646l-1.273,4.2H509.16l4.6-14.3h2.843Zm-4.18-5.962-1.209-3.734q-.192-.572-.721-2.694h-.043q-.213.912-.679,2.694l-1.188,3.734Zm16,.68a5.839,5.839,0,0,1-1.429,4.157,4.19,4.19,0,0,1-3.178,1.358,3.182,3.182,0,0,1-2.944-1.462v5.41h-2.291v-11.1q0-1.652-.085-3.389h2.015l.128,1.634h.043a4.075,4.075,0,0,1,6.523-.405A5.7,5.7,0,0,1,533.049,225.218Zm-2.334.084a4.251,4.251,0,0,0-.679-2.483,2.347,2.347,0,0,0-1.994-1.017,2.382,2.382,0,0,0-1.538.562,2.606,2.606,0,0,0-.9,1.475,2.991,2.991,0,0,0-.106.7v1.72a2.759,2.759,0,0,0,.69,1.9,2.29,2.29,0,0,0,1.792.775,2.347,2.347,0,0,0,2.015-1A4.39,4.39,0,0,0,530.715,225.3Zm14.193-.084a5.839,5.839,0,0,1-1.429,4.157,4.192,4.192,0,0,1-3.179,1.358,3.182,3.182,0,0,1-2.944-1.462v5.41h-2.291v-11.1q0-1.652-.085-3.389h2.015l.128,1.634h.043a4.076,4.076,0,0,1,6.524-.405A5.707,5.707,0,0,1,544.907,225.218Zm-2.335.084a4.25,4.25,0,0,0-.68-2.483A2.343,2.343,0,0,0,539.9,221.8a2.392,2.392,0,0,0-1.54.562,2.605,2.605,0,0,0-.9,1.475,3.062,3.062,0,0,0-.107.7v1.72a2.768,2.768,0,0,0,.689,1.9,2.3,2.3,0,0,0,1.794.775,2.345,2.345,0,0,0,2.015-1A4.388,4.388,0,0,0,542.573,225.3Zm15.594,1.187a3.82,3.82,0,0,1-1.271,2.971,5.634,5.634,0,0,1-3.9,1.252,6.8,6.8,0,0,1-3.7-.891l.53-1.909a6.373,6.373,0,0,0,3.309.892,3.122,3.122,0,0,0,2.015-.583,1.906,1.906,0,0,0,.723-1.558,2,2,0,0,0-.6-1.464,5.519,5.519,0,0,0-1.973-1.1q-3.755-1.4-3.756-4.1a3.616,3.616,0,0,1,1.326-2.885,5.243,5.243,0,0,1,3.511-1.125,6.939,6.939,0,0,1,3.246.679l-.575,1.867a5.676,5.676,0,0,0-2.747-.658,2.794,2.794,0,0,0-1.9.594,1.7,1.7,0,0,0-.575,1.3,1.751,1.751,0,0,0,.659,1.4,7.422,7.422,0,0,0,2.078,1.1,7.046,7.046,0,0,1,2.715,1.738A3.622,3.622,0,0,1,558.166,226.489Zm7.594-4.58h-2.525v5.006q0,1.91,1.337,1.908a4.028,4.028,0,0,0,1.017-.106l.063,1.74a5.188,5.188,0,0,1-1.781.254,2.746,2.746,0,0,1-2.122-.828,4.062,4.062,0,0,1-.764-2.78v-5.2h-1.5v-1.719h1.5V218.3l2.25-.679v2.567h2.525Zm11.37,3.351a5.656,5.656,0,0,1-1.358,3.9,4.841,4.841,0,0,1-3.776,1.57,4.615,4.615,0,0,1-3.618-1.5,5.484,5.484,0,0,1-1.347-3.8,5.61,5.61,0,0,1,1.389-3.924,4.816,4.816,0,0,1,3.746-1.528,4.711,4.711,0,0,1,3.648,1.506A5.412,5.412,0,0,1,577.13,225.26Zm-2.375.053a4.616,4.616,0,0,0-.613-2.433,2.267,2.267,0,0,0-2.059-1.228,2.3,2.3,0,0,0-2.1,1.228,4.693,4.693,0,0,0-.615,2.476,4.6,4.6,0,0,0,.615,2.434,2.349,2.349,0,0,0,4.14-.02A4.635,4.635,0,0,0,574.755,225.313Zm9.823-3.108a3.978,3.978,0,0,0-.722-.063,2.162,2.162,0,0,0-1.867.913,3.44,3.44,0,0,0-.572,2.036v5.41h-2.291v-7.063q0-1.781-.067-3.246h2l.084,1.973h.063a3.537,3.537,0,0,1,1.145-1.634,2.771,2.771,0,0,1,1.656-.552,3.667,3.667,0,0,1,.573.042Zm10.246,2.653a5.373,5.373,0,0,1-.084,1.039h-6.872a2.991,2.991,0,0,0,1,2.336,3.409,3.409,0,0,0,2.248.72,7.6,7.6,0,0,0,2.781-.487l.359,1.589a8.6,8.6,0,0,1-3.457.637,5.011,5.011,0,0,1-3.767-1.41,5.212,5.212,0,0,1-1.368-3.786,5.906,5.906,0,0,1,1.274-3.881,4.391,4.391,0,0,1,3.6-1.654,3.842,3.842,0,0,1,3.375,1.654A5.565,5.565,0,0,1,594.824,224.857Zm-2.184-.594a3.1,3.1,0,0,0-.445-1.761,2,2,0,0,0-1.824-.956,2.172,2.172,0,0,0-1.823.934,3.421,3.421,0,0,0-.678,1.781Z" transform="translate(-509.16 -215.99)" fill="#fff"/>
  </g>
  <g id="Group_77" data-name="Group 77" transform="translate(46.442 7.041)">
    <path id="Path_101" data-name="Path 101" d="M524.622,86.028h-1.2l-.656-2.064h-2.283l-.626,2.064h-1.168L520.951,79h1.4Zm-2.055-2.93-.594-1.835c-.062-.188-.177-.625-.355-1.324H521.6c-.073.3-.177.74-.334,1.324L520.68,83.1Zm7.713-2.137-1.919,5.067h-1.095l-1.857-5.067h1.21l.866,2.68c.146.448.271.876.364,1.282h.031c.084-.364.208-.792.364-1.282l.855-2.68Zm4.085,5.067-.084-.584h-.031a1.728,1.728,0,0,1-1.481.7,1.475,1.475,0,0,1-1.554-1.491c0-1.251,1.084-1.9,2.961-1.9v-.093c0-.667-.355-1-1.053-1a2.366,2.366,0,0,0-1.324.376l-.229-.74a3.244,3.244,0,0,1,1.742-.438c1.324,0,1.992.7,1.992,2.1v1.866a7.535,7.535,0,0,0,.073,1.21Zm-.157-2.524c-1.252,0-1.877.3-1.877,1.022a.718.718,0,0,0,.771.792,1.078,1.078,0,0,0,1.106-1.031Zm3.6-3.378a.673.673,0,1,1,.709-.678A.662.662,0,0,1,537.813,80.126Zm.584,5.9h-1.126V80.961H538.4Zm3.127,0H540.4V78.636h1.126Zm4.786,0-.084-.584H546.2a1.728,1.728,0,0,1-1.481.7,1.475,1.475,0,0,1-1.554-1.491c0-1.251,1.084-1.9,2.961-1.9v-.093c0-.667-.355-1-1.053-1a2.366,2.366,0,0,0-1.324.376l-.23-.741a3.244,3.244,0,0,1,1.742-.438c1.324,0,1.992.7,1.992,2.1v1.866a7.812,7.812,0,0,0,.072,1.21H546.31Zm-.157-2.524c-1.252,0-1.877.3-1.877,1.022a.718.718,0,0,0,.771.792,1.078,1.078,0,0,0,1.106-1.031Zm5.658,2.639a1.72,1.72,0,0,1-1.594-.9H550.2l-.064.782h-.96c.031-.406.042-.866.042-1.366V78.636h1.127V81.7h.021a1.738,1.738,0,0,1,1.616-.845c1.221,0,2.076,1.043,2.076,2.565C554.054,85,553.1,86.143,551.812,86.143Zm-.229-4.4a1.3,1.3,0,0,0-1.241,1.345v.886a1.241,1.241,0,0,0,1.222,1.272c.843,0,1.345-.688,1.345-1.783C552.907,82.442,552.385,81.742,551.583,81.742Zm5.262,4.286h-1.125V78.636h1.125Zm6.13-2.263h-3.38a1.454,1.454,0,0,0,1.6,1.5,3.8,3.8,0,0,0,1.366-.24l.175.782a4.224,4.224,0,0,1-1.7.313,2.353,2.353,0,0,1-2.524-2.554,2.475,2.475,0,0,1,2.4-2.722,2.514,2.514,0,0,1,2.069,2.919Zm-1.033-.8c0-.782-.4-1.334-1.116-1.334a1.337,1.337,0,0,0-1.231,1.334Zm7.858,3.18a2.412,2.412,0,0,1-2.44-2.607,2.468,2.468,0,0,1,2.525-2.68,2.393,2.393,0,0,1,2.44,2.6A2.483,2.483,0,0,1,569.8,86.143Zm.043-4.463c-.813,0-1.334.761-1.334,1.824,0,1.043.532,1.8,1.324,1.8s1.323-.813,1.323-1.826C571.155,82.451,570.634,81.68,569.842,81.68Zm8.535,4.348h-1.125v-2.91c0-.9-.344-1.345-1.022-1.345a1.17,1.17,0,0,0-1.127,1.241v3.014h-1.125V82.41c0-.448-.012-.928-.042-1.449h.991l.053.782h.031a1.818,1.818,0,0,1,1.605-.886c1.063,0,1.761.813,1.761,2.137v3.035Zm7.368-4.223h-1.239v2.461q0,.94.655.939a2.228,2.228,0,0,0,.5-.053l.031.855a2.507,2.507,0,0,1-.875.126c-.888,0-1.417-.49-1.417-1.773V81.806h-.739v-.845h.739v-.928l1.1-.334V80.96h1.239Zm5.963,4.223h-1.127V83.14c0-.907-.344-1.366-1.022-1.366a1.1,1.1,0,0,0-1.125,1.2v3.055h-1.127V78.636h1.127V81.68h.021a1.705,1.705,0,0,1,1.523-.824c1.073,0,1.73.834,1.73,2.159Zm5.754-2.263h-3.379a1.453,1.453,0,0,0,1.595,1.5,3.8,3.8,0,0,0,1.366-.24l.176.782a4.23,4.23,0,0,1-1.7.313A2.353,2.353,0,0,1,593,83.568a2.475,2.475,0,0,1,2.4-2.722,2.129,2.129,0,0,1,2.107,2.409A2.2,2.2,0,0,1,597.462,83.765Zm-1.033-.8c0-.782-.4-1.334-1.115-1.334a1.336,1.336,0,0,0-1.231,1.334Z" transform="translate(-518.688 -78.636)" fill="#fff"/>
  </g>
</svg>
