<svg id="google-play" xmlns="http://www.w3.org/2000/svg" xmlns:xlink="http://www.w3.org/1999/xlink" width="145.012" height="42.966" viewBox="0 0 145.012 42.966">
  <defs>
    <linearGradient id="linear-gradient" x1="0.908" y1="1.032" x2="-0.383" y2="0.36" gradientUnits="objectBoundingBox">
      <stop offset="0" stop-color="#00a0ff"/>
      <stop offset="0.007" stop-color="#00a1ff"/>
      <stop offset="0.26" stop-color="#00beff"/>
      <stop offset="0.512" stop-color="#00d2ff"/>
      <stop offset="0.76" stop-color="#00dfff"/>
      <stop offset="1" stop-color="#00e3ff"/>
    </linearGradient>
    <linearGradient id="linear-gradient-2" x1="1.077" y1="0.729" x2="-1.307" y2="0.729" gradientUnits="objectBoundingBox">
      <stop offset="0" stop-color="#ffe000"/>
      <stop offset="0.409" stop-color="#ffbd00"/>
      <stop offset="0.775" stop-color="orange"/>
      <stop offset="1" stop-color="#ff9c00"/>
    </linearGradient>
    <linearGradient id="linear-gradient-3" x1="0.864" y1="-0.023" x2="-0.499" y2="-1.789" gradientUnits="objectBoundingBox">
      <stop offset="0" stop-color="#ff3a44"/>
      <stop offset="1" stop-color="#c31162"/>
    </linearGradient>
    <linearGradient id="linear-gradient-4" x1="-0.186" y1="2.701" x2="0.423" y2="1.909" gradientUnits="objectBoundingBox">
      <stop offset="0" stop-color="#32a071"/>
      <stop offset="0.069" stop-color="#2da771"/>
      <stop offset="0.476" stop-color="#15cf74"/>
      <stop offset="0.801" stop-color="#06e775"/>
      <stop offset="1" stop-color="#00f076"/>
    </linearGradient>
  </defs>
  <path id="Path_102" data-name="Path 102" d="M139.641,42.967H5.371A5.319,5.319,0,0,1,0,37.6V5.371A5.319,5.319,0,0,1,5.371,0H139.641a5.319,5.319,0,0,1,5.371,5.371V37.6A5.319,5.319,0,0,1,139.641,42.967Z"/>
  <path id="Path_103" data-name="Path 103" d="M139.641.859a4.539,4.539,0,0,1,4.511,4.511V37.6a4.539,4.539,0,0,1-4.511,4.511H5.371A4.539,4.539,0,0,1,.859,37.6V5.371A4.539,4.539,0,0,1,5.371.859H139.641m0-.859H5.371A5.386,5.386,0,0,0,0,5.371V37.6a5.319,5.319,0,0,0,5.371,5.371H139.641a5.319,5.319,0,0,0,5.371-5.371V5.371A5.386,5.386,0,0,0,139.641,0Z" fill="#a6a6a6"/>
  <path id="Path_104" data-name="Path 104" d="M47.845,10.445a2.926,2.926,0,0,1-.752,2.148A3.33,3.33,0,0,1,41.4,10.23,3.3,3.3,0,0,1,44.73,6.9a2.86,2.86,0,0,1,1.289.322,2.339,2.339,0,0,1,.967.752l-.537.537a2,2,0,0,0-1.719-.752,2.137,2.137,0,0,0-1.719.752,2.213,2.213,0,0,0-.752,1.826,2.213,2.213,0,0,0,.752,1.826,2.766,2.766,0,0,0,1.719.752,2.356,2.356,0,0,0,1.826-.752,1.779,1.779,0,0,0,.537-1.289H44.73v-.859h3.115v.43Zm4.941-2.685h-2.9V9.8h2.685v.752H49.886v2.041h2.9v.859h-3.76V7.007h3.76Zm3.545,5.693h-.859V7.759H53.645V7.007h4.511v.752H56.331Zm4.941,0V7.007h.859v6.445Zm4.511,0h-.859V7.759H63.1V7.007h4.4v.752H65.676v5.693Zm10.2-.859A3.33,3.33,0,0,1,70.3,10.23a3.33,3.33,0,1,1,6.66,0A3.158,3.158,0,0,1,75.988,12.593Zm-4.082-.537a2.535,2.535,0,0,0,1.719.752,2.137,2.137,0,0,0,1.719-.752A2.591,2.591,0,0,0,76.1,10.23,2.213,2.213,0,0,0,75.344,8.4a2.535,2.535,0,0,0-1.719-.752,2.137,2.137,0,0,0-1.719.752,2.591,2.591,0,0,0-.752,1.826A2.213,2.213,0,0,0,71.906,12.056Zm6.23,1.4V7.007H79.1l3.115,5.049V7.007h.859v6.445h-.859l-3.33-5.263v5.263Z" transform="translate(3.07 0.512)" fill="#fff" stroke="#fff" stroke-miterlimit="10" stroke-width="0.2"/>
  <path id="Path_105" data-name="Path 105" d="M70.1,22.149a4.519,4.519,0,0,0-4.619,4.619A4.585,4.585,0,0,0,70.1,31.386a4.519,4.519,0,0,0,4.619-4.619A4.456,4.456,0,0,0,70.1,22.149Zm0,7.3a2.8,2.8,0,0,1,0-5.586A2.6,2.6,0,0,1,72.68,26.66,2.666,2.666,0,0,1,70.1,29.453Zm-9.99-7.3a4.519,4.519,0,0,0-4.619,4.619,4.585,4.585,0,0,0,4.619,4.619,4.519,4.519,0,0,0,4.619-4.619A4.456,4.456,0,0,0,60.113,22.149Zm0,7.3a2.8,2.8,0,0,1,0-5.586,2.6,2.6,0,0,1,2.578,2.793A2.666,2.666,0,0,1,60.113,29.453ZM48.189,23.545v1.933h4.619a4.062,4.062,0,0,1-1.074,2.471,4.754,4.754,0,0,1-3.545,1.4,5,5,0,0,1-5.049-5.156,5.067,5.067,0,0,1,5.049-5.156,5.326,5.326,0,0,1,3.545,1.4l1.4-1.4A6.883,6.883,0,0,0,48.3,17.1a7.246,7.246,0,0,0-7.2,7.089,7.246,7.246,0,0,0,7.2,7.089,6.182,6.182,0,0,0,4.941-2.041,6.466,6.466,0,0,0,1.719-4.511,4.028,4.028,0,0,0-.107-1.182h-6.66Zm48.767,1.5a4.174,4.174,0,0,0-3.867-2.9,4.326,4.326,0,0,0-4.3,4.619A4.5,4.5,0,0,0,93.3,31.386a4.406,4.406,0,0,0,3.76-2.041l-1.5-1.074A2.618,2.618,0,0,1,93.3,29.56a2.331,2.331,0,0,1-2.256-1.4l6.123-2.578Zm-6.23,1.5a2.609,2.609,0,0,1,2.363-2.685,1.9,1.9,0,0,1,1.719.967l-4.082,1.719Zm-5.049,4.4h2.041V17.53H85.678Zm-3.222-7.841a3.537,3.537,0,0,0-2.471-1.074,4.615,4.615,0,0,0-4.4,4.619,4.448,4.448,0,0,0,4.4,4.511A3.084,3.084,0,0,0,82.348,30.1h.107v.645a2.442,2.442,0,0,1-4.726,1.074l-1.719.752a4.431,4.431,0,0,0,4.082,2.685c2.363,0,4.3-1.4,4.3-4.726V22.363H82.455Zm-2.363,6.338a2.8,2.8,0,0,1,0-5.586,2.584,2.584,0,0,1,2.471,2.793A2.584,2.584,0,0,1,80.092,29.453ZM106.3,17.53h-4.834V30.957h2.041V25.908H106.3a4.194,4.194,0,1,0,0-8.378Zm.107,6.445h-2.9V19.356h2.9a2.359,2.359,0,0,1,2.363,2.256A2.458,2.458,0,0,1,106.409,23.975Zm12.353-1.933a3.611,3.611,0,0,0-3.545,2.041l1.826.752a1.9,1.9,0,0,1,1.826-.967,2.019,2.019,0,0,1,2.148,1.719v.107a4.261,4.261,0,0,0-2.041-.537c-1.934,0-3.867,1.074-3.867,3.008a3.147,3.147,0,0,0,3.33,3.008,3.023,3.023,0,0,0,2.578-1.289h.107v1.074h1.933V25.8A4.065,4.065,0,0,0,118.762,22.041Zm-.215,7.412c-.644,0-1.611-.322-1.611-1.182,0-1.074,1.182-1.4,2.148-1.4a4.154,4.154,0,0,1,1.826.43A2.5,2.5,0,0,1,118.547,29.453Zm11.279-7.089-2.256,5.8h-.107l-2.363-5.8h-2.148l3.545,8.164-2.041,4.511H126.5l5.478-12.675ZM111.78,30.957h2.041V17.53H111.78Z" transform="translate(3.048 1.268)" fill="#fff"/>
  <g id="Group_78" data-name="Group 78" transform="translate(10.742 7.678)">
    <path id="Path_106" data-name="Path 106" d="M10.43,7.5A2.1,2.1,0,0,0,10,9V32.743a2.125,2.125,0,0,0,.537,1.5l.107.107,13.32-13.32V20.82Z" transform="translate(-10 -7.121)" fill="url(#linear-gradient)"/>
    <path id="Path_107" data-name="Path 107" d="M27.3,24.93l-4.4-4.4V20.2l4.4-4.4.107.107,5.263,3.008c1.5.859,1.5,2.256,0,3.115Z" transform="translate(-9.043 -6.505)" fill="url(#linear-gradient-2)"/>
    <path id="Path_108" data-name="Path 108" d="M28.339,24.511,23.827,20,10.4,33.427c.537.537,1.289.537,2.256.107l15.683-9.023" transform="translate(-9.97 -6.194)" fill="url(#linear-gradient-3)"/>
    <path id="Path_109" data-name="Path 109" d="M28.339,16.44,12.656,7.524a1.741,1.741,0,0,0-2.256.107l13.427,13.32,4.511-4.511Z" transform="translate(-9.97 -7.145)" fill="url(#linear-gradient-4)"/>
    <path id="Path_110" data-name="Path 110" d="M28.231,24.1,12.656,32.908a1.757,1.757,0,0,1-2.148,0l-.107.107.107.107a1.757,1.757,0,0,0,2.148,0Z" transform="translate(-9.97 -5.89)" opacity="0.2"/>
    <path id="Path_111" data-name="Path 111" d="M10.43,33.212a2.1,2.1,0,0,1-.43-1.5v.107a2.125,2.125,0,0,0,.537,1.5v-.107ZM33.632,21.4,28.261,24.4l.107.107L33.632,21.5A1.786,1.786,0,0,0,34.706,20C34.706,20.537,34.276,20.967,33.632,21.4Z" transform="translate(-10 -6.194)" opacity="0.12"/>
    <path id="Path_112" data-name="Path 112" d="M12.685,7.634,33.632,19.557c.644.43,1.074.859,1.074,1.4a1.786,1.786,0,0,0-1.074-1.5L12.685,7.526C11.182,6.667,10,7.311,10,9.03v.107C10,7.526,11.182,6.774,12.685,7.634Z" transform="translate(-10 -7.147)" fill="#fff" opacity="0.25"/>
  </g>
</svg>
