<?xml version="1.0" encoding="utf-8"?>
<!-- Generator: Adobe Illustrator 25.1.0, SVG Export Plug-In . SVG Version: 6.00 Build 0)  -->
<svg version="1.1" id="Layer_1" xmlns="http://www.w3.org/2000/svg" xmlns:xlink="http://www.w3.org/1999/xlink" x="0px" y="0px"
	 viewBox="0 0 100 100" style="enable-background:new 0 0 100 100;" xml:space="preserve">
<style type="text/css">
	.st0{fill:#666666;}
</style>
<g>
	<g>
		<path class="st0" d="M50,96.5C24.36,96.5,3.5,75.64,3.5,50S24.36,3.5,50,3.5S96.5,24.36,96.5,50S75.64,96.5,50,96.5z M50,6.5
			C26.01,6.5,6.5,26.01,6.5,50S26.01,93.5,50,93.5S93.5,73.99,93.5,50S73.99,6.5,50,6.5z"/>
	</g>
	<path class="st0" d="M50,25.02c-10.23,0-19.95-0.91-23.66,8.61c-1.53,3.93-1.31,9.04-1.31,16.36c0,6.42-0.21,12.45,1.31,16.36
		c3.7,9.53,13.5,8.62,23.65,8.62c9.8,0,19.9,1.02,23.66-8.62c1.54-3.97,1.31-9.01,1.31-16.36c0-9.76,0.54-16.05-4.19-20.78
		c-4.79-4.79-11.27-4.19-20.78-4.19L50,25.02z M47.76,29.52c21.34-0.03,24.06-2.41,22.56,30.55C69.79,71.74,60.91,70.46,50,70.46
		c-19.89,0-20.47-0.57-20.47-20.47C29.54,29.85,31.11,29.54,47.76,29.52L47.76,29.52z M63.33,33.67c-1.65,0-3,1.34-3,3s1.34,3,3,3
		c1.65,0,3-1.34,3-3S64.98,33.67,63.33,33.67z M50,37.17c-7.08,0-12.82,5.74-12.82,12.82S42.92,62.82,50,62.82S62.82,57.08,62.82,50
		S57.08,37.17,50,37.17L50,37.17z M50,41.67c11,0,11.02,16.65,0,16.65C39,58.32,38.98,41.67,50,41.67z"/>
</g>
</svg>
