<?xml version="1.0" encoding="utf-8"?>
<!-- Generator: Adobe Illustrator 25.1.0, SVG Export Plug-In . SVG Version: 6.00 Build 0)  -->
<svg version="1.1" id="Layer_1" xmlns="http://www.w3.org/2000/svg" xmlns:xlink="http://www.w3.org/1999/xlink" x="0px" y="0px"
	 viewBox="0 0 100 100" style="enable-background:new 0 0 100 100;" xml:space="preserve">
<style type="text/css">
	.st0{fill:#666666;}
</style>
<g>
	<g>
		<path class="st0" d="M50,96.5C24.36,96.5,3.5,75.64,3.5,50S24.36,3.5,50,3.5S96.5,24.36,96.5,50S75.64,96.5,50,96.5z M50,6.5
			C26.01,6.5,6.5,26.01,6.5,50S26.01,93.5,50,93.5S93.5,73.99,93.5,50S73.99,6.5,50,6.5z"/>
	</g>
	<path class="st0" d="M60.62,49.93h-6.83V75H43.41V49.93h-4.92v-8.81h4.92v-5.67c0-4.1,1.91-10.45,10.45-10.45h7.65v8.54h-5.6
		c-0.89,0-2.19,0.48-2.19,2.39v5.19h7.72L60.62,49.93z"/>
</g>
</svg>
