<?xml version="1.0" encoding="utf-8"?>
<!-- Generator: Adobe Illustrator 25.1.0, SVG Export Plug-In . SVG Version: 6.00 Build 0)  -->
<svg version="1.1" id="Layer_1" xmlns="http://www.w3.org/2000/svg" xmlns:xlink="http://www.w3.org/1999/xlink" x="0px" y="0px"
	 viewBox="0 0 100 100" style="enable-background:new 0 0 100 100;" xml:space="preserve">
<style type="text/css">
	.st0{fill:#666666;}
</style>
<g>
	<g>
		<path class="st0" d="M50,97.83c-25.64,0-46.5-20.86-46.5-46.5S24.36,4.83,50,4.83s46.5,20.86,46.5,46.5S75.64,97.83,50,97.83z
			 M50,7.83c-23.99,0-43.5,19.51-43.5,43.5s19.51,43.5,43.5,43.5s43.5-19.51,43.5-43.5S73.99,7.83,50,7.83z"/>
	</g>
	<g>
		<path class="st0" d="M53.25,62.6c-3.04-0.24-4.32-1.74-6.71-3.19c-1.31,6.88-2.92,13.48-7.66,16.93
			c-1.47-10.4,2.15-18.22,3.83-26.51C39.84,45,43.05,35.29,49.1,37.68c7.44,2.94-6.44,17.93,2.88,19.81
			c9.73,1.96,13.7-16.88,7.66-23c-8.71-8.84-25.37-0.2-23.32,12.46c0.5,3.09,3.7,4.03,1.28,8.3c-5.58-1.24-7.24-5.63-7.03-11.5
			c0.35-9.6,8.63-16.32,16.93-17.25c10.5-1.18,20.36,3.86,21.72,13.74C70.75,51.39,64.48,63.47,53.25,62.6L53.25,62.6z"/>
	</g>
</g>
</svg>
