<?xml version="1.0" encoding="utf-8"?>
<!-- Generator: Adobe Illustrator 25.1.0, SVG Export Plug-In . SVG Version: 6.00 Build 0)  -->
<svg version="1.1" id="Layer_1" xmlns="http://www.w3.org/2000/svg" xmlns:xlink="http://www.w3.org/1999/xlink" x="0px" y="0px"
	 viewBox="0 0 100 100" style="enable-background:new 0 0 100 100;" xml:space="preserve">
<style type="text/css">
	.st0{fill:#666666;}
</style>
<g>
	<g>
		<path class="st0" d="M50,96.64c-25.64,0-46.5-20.86-46.5-46.5S24.36,3.64,50,3.64s46.5,20.86,46.5,46.5S75.64,96.64,50,96.64z
			 M50,6.64c-23.99,0-43.5,19.51-43.5,43.5s19.51,43.5,43.5,43.5s43.5-19.51,43.5-43.5S73.99,6.64,50,6.64z"/>
	</g>
	<path class="st0" d="M75.66,34.69c-1.89,0.82-3.92,1.36-6.05,1.61c2.18-1.27,3.85-3.27,4.63-5.66c-2.04,1.17-4.29,2.03-6.69,2.48
		c-1.92-1.98-4.66-3.22-7.68-3.22c-5.81,0-10.53,4.57-10.53,10.21c0,0.8,0.09,1.58,0.27,2.33c-8.75-0.43-16.51-4.5-21.7-10.68
		c-0.91,1.51-1.43,3.26-1.43,5.14c0,3.54,1.86,6.67,4.68,8.5c-1.73-0.05-3.35-0.51-4.77-1.28v0.13c0,4.95,3.63,9.08,8.45,10.02
		c-0.88,0.23-1.81,0.36-2.77,0.36c-0.68,0-1.34-0.06-1.98-0.18c1.34,4.06,5.23,7.01,9.84,7.1c-3.6,2.74-8.14,4.37-13.08,4.37
		c-0.85,0-1.69-0.05-2.51-0.14c4.66,2.9,10.19,4.59,16.14,4.59c19.37,0,29.96-15.57,29.96-29.08l-0.03-1.32
		C72.46,38.55,74.25,36.75,75.66,34.69z"/>
</g>
</svg>
